<svg width="87" height="92" viewBox="0 0 87 92" fill="none" xmlns="http://www.w3.org/2000/svg">
<path d="M1.74402 0.583496H83.1514V62.4057H1.74402V0.583496Z" fill="white"/>
<path d="M1.74399 0.146908C0.474026 0.044308 1.74399 61.9748 1.30737 62.4069C1.21161 63.6791 82.717 62.4069 83.1594 62.8435C84.4293 62.9449 83.1594 1.01445 83.596 0.582388C83.6838 -0.688712 2.17947 0.583528 1.74399 0.146908ZM2.1806 1.02015H82.7159V61.9691H2.17947L2.1806 1.02015Z" fill="#D5F4FF"/>
<path d="M1.74401 19.1655C1.20137 19.1563 1.16033 20.0467 1.74401 20.0376C2.20001 19.6044 83.6678 20.8698 83.588 19.6021C83.6861 18.3287 2.17835 19.6009 1.74401 19.1655Z" fill="#D5F4FF"/>
<path d="M1.74401 42.8377C1.20137 42.8297 1.16033 43.72 1.74401 43.7109C2.20001 43.2777 83.6678 44.5431 83.588 43.2754C83.6861 42.002 2.17835 43.28 1.74401 42.8377Z" fill="#D5F4FF"/>
<path d="M3.55319 2.34595H8.15081V19.1644H3.55319V2.34595Z" fill="#D5F4FF"/>
<path d="M3.55322 3.59656H8.15084V4.86196H3.55322V3.59656Z" fill="#B0EBFF"/>
<path d="M3.55322 7.86353H8.15084V16.5492H3.55322V7.86353Z" fill="#B0EBFF"/>
<path d="M8.98987 2.34595H13.5875V19.1644H8.98987V2.34595Z" fill="#D5F4FF"/>
<path d="M8.98987 3.59656H13.5875V4.86196H8.98987V3.59656Z" fill="#B0EBFF"/>
<path d="M8.98987 7.86353H13.5875V16.5492H8.98987V7.86353Z" fill="#B0EBFF"/>
<path d="M14.4276 2.34595H19.0253V19.1644H14.4276V2.34595Z" fill="#D5F4FF"/>
<path d="M14.4276 3.59656H19.0252V4.86196H14.4276V3.59656Z" fill="#B0EBFF"/>
<path d="M14.4276 7.86353H19.0252V16.5492H14.4276V7.86353Z" fill="#B0EBFF"/>
<path d="M20.0752 2.34595H24.6728V19.1644H20.0752V2.34595Z" fill="#D5F4FF"/>
<path d="M20.0752 3.59656H24.6728V4.86196H20.0752V3.59656Z" fill="#B0EBFF"/>
<path d="M20.0752 7.86353H24.6728V16.5492H20.0752V7.86353Z" fill="#B0EBFF"/>
<path d="M67.5459 2.16809L71.7047 4.12775L64.5375 19.3399L60.3788 17.3814L67.5459 2.16809Z" fill="#D5F4FF"/>
<path d="M67.0124 3.29895L71.17 5.25861L70.6285 6.40659L66.4698 4.44693L67.0124 3.29895Z" fill="#B0EBFF"/>
<path d="M65.1941 7.16016L69.3528 9.11868L65.6524 16.9767L61.4925 15.017L65.1941 7.16016Z" fill="#B0EBFF"/>
<path d="M71.74 2.34595H76.3376V19.1644H71.74V2.34595Z" fill="#D5F4FF"/>
<path d="M71.74 3.59656H76.3376V4.86196H71.74V3.59656Z" fill="#B0EBFF"/>
<path d="M71.74 7.86353H76.3376V16.5492H71.74V7.86353Z" fill="#B0EBFF"/>
<path d="M77.1732 2.34595H81.772V19.1644H77.1732V2.34595Z" fill="#D5F4FF"/>
<path d="M77.1732 3.59656H81.772V4.86196H77.1732V3.59656Z" fill="#B0EBFF"/>
<path d="M77.1732 7.86353H81.772V16.5492H77.1732V7.86353Z" fill="#B0EBFF"/>
<path d="M3.55319 26.0192H8.15081V42.8376H3.55319V26.0192Z" fill="#D5F4FF"/>
<path d="M3.55322 27.2697H8.15084V28.5385H3.55322V27.2697Z" fill="#B0EBFF"/>
<path d="M3.55322 31.5378H8.15084V40.2235H3.55322V31.5378Z" fill="#B0EBFF"/>
<path d="M8.98987 26.0192H13.5875V42.8376H8.98987V26.0192Z" fill="#D5F4FF"/>
<path d="M8.98987 27.2697H13.5875V28.5385H8.98987V27.2697Z" fill="#B0EBFF"/>
<path d="M8.98987 31.5378H13.5875V40.2235H8.98987V31.5378Z" fill="#B0EBFF"/>
<path d="M14.4276 26.0192H19.0253V42.8376H14.4276V26.0192Z" fill="#D5F4FF"/>
<path d="M14.4276 27.2697H19.0252V28.5385H14.4276V27.2697Z" fill="#B0EBFF"/>
<path d="M14.4276 31.5378H19.0252V40.2235H14.4276V31.5378Z" fill="#B0EBFF"/>
<path d="M19.87 26.0192H24.4676V42.8376H19.87V26.0192Z" fill="#D5F4FF"/>
<path d="M19.87 27.2697H24.4676V28.5385H19.87V27.2697Z" fill="#B0EBFF"/>
<path d="M19.87 31.5378H24.4676V40.2235H19.87V31.5378Z" fill="#B0EBFF"/>
<path d="M60.861 26.0192H65.4586V42.8376H60.861V26.0192Z" fill="#D5F4FF"/>
<path d="M60.861 27.2697H65.4586V28.5385H60.861V27.2697Z" fill="#B0EBFF"/>
<path d="M60.861 31.5378H65.4586V40.2235H60.861V31.5378Z" fill="#B0EBFF"/>
<path d="M66.2976 26.0192H70.8953V42.8376H66.2976V26.0192Z" fill="#D5F4FF"/>
<path d="M66.2977 27.2697H70.8953V28.5385H66.2977V27.2697Z" fill="#B0EBFF"/>
<path d="M66.2977 31.5378H70.8953V40.2235H66.2977V31.5378Z" fill="#B0EBFF"/>
<path d="M71.74 26.0192H76.3376V42.8376H71.74V26.0192Z" fill="#D5F4FF"/>
<path d="M71.74 27.2697H76.3376V28.5385H71.74V27.2697Z" fill="#B0EBFF"/>
<path d="M71.74 31.5378H76.3376V40.2235H71.74V31.5378Z" fill="#B0EBFF"/>
<path d="M77.1732 26.0192H81.772V42.8376H77.1732V26.0192Z" fill="#D5F4FF"/>
<path d="M77.1732 27.2697H81.772V28.5385H77.1732V27.2697Z" fill="#B0EBFF"/>
<path d="M77.1732 31.5378H81.772V40.2235H77.1732V31.5378Z" fill="#B0EBFF"/>
<path d="M3.55319 45.08H8.15081V61.8984H3.55319V45.08Z" fill="#D5F4FF"/>
<path d="M3.55322 46.3306H8.15084V47.5994H3.55322V46.3306Z" fill="#B0EBFF"/>
<path d="M3.55322 50.5975H8.15084V59.2832H3.55322V50.5975Z" fill="#B0EBFF"/>
<path d="M8.98987 45.08H13.5875V61.8984H8.98987V45.08Z" fill="#D5F4FF"/>
<path d="M8.98987 46.3306H13.5875V47.5994H8.98987V46.3306Z" fill="#B0EBFF"/>
<path d="M8.98987 50.5975H13.5875V59.2832H8.98987V50.5975Z" fill="#B0EBFF"/>
<path d="M14.4276 45.08H19.0253V61.8984H14.4276V45.08Z" fill="#D5F4FF"/>
<path d="M14.4276 46.3306H19.0252V47.5994H14.4276V46.3306Z" fill="#B0EBFF"/>
<path d="M14.4276 50.5975H19.0252V59.2832H14.4276V50.5975Z" fill="#B0EBFF"/>
<path d="M19.87 45.08H24.4676V61.8984H19.87V45.08Z" fill="#D5F4FF"/>
<path d="M19.87 46.3306H24.4676V47.5994H19.87V46.3306Z" fill="#B0EBFF"/>
<path d="M19.87 50.5975H24.4676V59.2832H19.87V50.5975Z" fill="#B0EBFF"/>
<path d="M60.861 45.08H65.4586V61.8984H60.861V45.08Z" fill="#D5F4FF"/>
<path d="M60.861 46.3306H65.4586V47.5994H60.861V46.3306Z" fill="#B0EBFF"/>
<path d="M60.861 50.5975H65.4586V59.2832H60.861V50.5975Z" fill="#B0EBFF"/>
<path d="M66.2977 45.08H70.8953V61.8984H66.2977V45.08Z" fill="#D5F4FF"/>
<path d="M66.2976 46.3306H70.8953V47.5994H66.2976V46.3306Z" fill="#B0EBFF"/>
<path d="M66.2976 50.5977H70.8953V59.2833H66.2976V50.5977Z" fill="#B0EBFF"/>
<path d="M71.74 45.08H76.3376V61.8984H71.74V45.08Z" fill="#D5F4FF"/>
<path d="M71.74 46.3306H76.3376V47.5994H71.74V46.3306Z" fill="#B0EBFF"/>
<path d="M71.74 50.5977H76.3376V59.2833H71.74V50.5977Z" fill="#B0EBFF"/>
<path d="M77.1732 45.08H81.772V61.8984H77.1732V45.08Z" fill="#D5F4FF"/>
<path d="M77.1732 46.3306H81.772V47.5994H77.1732V46.3306Z" fill="#B0EBFF"/>
<path d="M77.1732 50.5977H81.772V59.2833H77.1732V50.5977Z" fill="#B0EBFF"/>
<path d="M55.4232 26.0192H60.0208V42.8376H55.4232V26.0192Z" fill="#D5F4FF"/>
<path d="M55.4232 27.2697H60.0208V28.5385H55.4232V27.2697Z" fill="#B0EBFF"/>
<path d="M55.4232 31.5378H60.0208V40.2235H55.4232V31.5378Z" fill="#B0EBFF"/>
<path d="M55.4232 45.08H60.0208V61.8984H55.4232V45.08Z" fill="#D5F4FF"/>
<path d="M55.4232 46.3306H60.0208V47.5994H55.4232V46.3306Z" fill="#B0EBFF"/>
<path d="M55.4232 50.5975H60.0208V59.2832H55.4232V50.5975Z" fill="#B0EBFF"/>
<path d="M25.3716 26.0192H29.9693V42.8376H25.3716V26.0192Z" fill="#D5F4FF"/>
<path d="M25.3716 27.2697H29.9693V28.5385H25.3716V27.2697Z" fill="#B0EBFF"/>
<path d="M25.3716 31.5378H29.9693V40.2235H25.3716V31.5378Z" fill="#B0EBFF"/>
<path d="M25.3716 45.08H29.9693V61.8984H25.3716V45.08Z" fill="#D5F4FF"/>
<path d="M25.3716 46.3306H29.9693V47.5994H25.3716V46.3306Z" fill="#B0EBFF"/>
<path d="M25.3716 50.5975H29.9693V59.2832H25.3716V50.5975Z" fill="#B0EBFF"/>
<path d="M13.8977 67.472C13.5641 67.4745 13.235 67.5501 12.9338 67.6936C12.6326 67.8371 12.3666 68.045 12.1545 68.3025C11.9423 68.5601 11.7893 68.8611 11.7063 69.1842C11.6232 69.5073 11.612 69.8448 11.6736 70.1727H16.1298C16.1915 69.8441 16.1802 69.506 16.0967 69.1823C16.0131 68.8586 15.8594 68.5572 15.6464 68.2995C15.4334 68.0418 15.1664 67.8341 14.8642 67.6911C14.562 67.5481 14.232 67.4733 13.8977 67.472Z" fill="#D7E9F5"/>
<path d="M13.8647 68.2895C13.9697 68.2885 14.0739 68.3086 14.1711 68.3483C14.2684 68.3881 14.3567 68.4469 14.431 68.5212C14.5053 68.5954 14.564 68.6838 14.6038 68.781C14.6436 68.8782 14.6636 68.9824 14.6627 69.0875V91.0781C14.6746 91.1894 14.663 91.302 14.6286 91.4086C14.5942 91.5151 14.5377 91.6132 14.4629 91.6966C14.388 91.7799 14.2965 91.8465 14.1942 91.8921C14.0919 91.9377 13.9812 91.9612 13.8692 91.9612C13.7572 91.9612 13.6465 91.9377 13.5442 91.8921C13.442 91.8465 13.3504 91.7799 13.2756 91.6966C13.2008 91.6132 13.1443 91.5151 13.1099 91.4086C13.0754 91.302 13.0638 91.1894 13.0758 91.0781V69.0829C13.0755 68.979 13.0957 68.8761 13.1351 68.78C13.1746 68.6839 13.2326 68.5965 13.3059 68.5228C13.3792 68.4491 13.4662 68.3906 13.5621 68.3505C13.658 68.3105 13.7608 68.2898 13.8647 68.2895Z" fill="#D7E9F5"/>
<path d="M3.82243 70.7507C3.46447 70.7655 3.29575 71.2945 3.52261 71.5487C3.20455 71.6205 3.06661 72.0993 3.28435 72.3387C2.96515 72.4094 2.82835 72.8893 3.04495 73.1276C2.72575 73.1994 2.58895 73.6782 2.80555 73.9165C2.48635 73.9883 2.34955 74.4671 2.56615 74.7065C2.24695 74.7783 2.11015 75.2571 2.32675 75.4954C2.24495 75.5189 2.17124 75.5646 2.11372 75.6274C2.05619 75.6901 2.01709 75.7675 2.00071 75.8511V75.8511C1.97911 75.9249 1.97571 76.0029 1.9908 76.0783C2.00588 76.1537 2.03901 76.2244 2.08735 76.2843C1.76929 76.3561 1.63135 76.8349 1.84795 77.0743C1.52989 77.1461 1.39195 77.6249 1.60855 77.8632C1.22551 77.9441 1.11835 78.6292 1.52647 78.7501C1.92547 78.8333 2.15461 78.2325 1.90495 77.9623C2.22415 77.8916 2.36095 77.4117 2.14435 77.1735C2.46241 77.1016 2.60035 76.6228 2.38375 76.3834C2.70181 76.3128 2.83975 75.8328 2.62315 75.5946C2.94121 75.5227 3.07915 75.0439 2.86255 74.8057C3.18061 74.7338 3.31855 74.2539 3.10195 74.0157C3.42001 73.945 3.55795 73.465 3.34021 73.2268C3.65941 73.155 3.79621 72.6762 3.57961 72.4379C3.89881 72.3661 4.03561 71.8861 3.81901 71.6479C4.23739 71.5647 4.30693 70.7689 3.82243 70.7507ZM5.34319 70.7507C4.85869 70.7701 4.92937 71.5647 5.34319 71.6456C5.12887 71.8839 5.26339 72.3638 5.58259 72.4356C5.36827 72.6739 5.50279 73.1527 5.82199 73.2245C5.60767 73.4627 5.74219 73.9427 6.06139 74.0134C5.84707 74.2516 5.98159 74.7316 6.30079 74.8034C6.08647 75.0417 6.22099 75.5205 6.53905 75.5923C6.32587 75.8305 6.46039 76.3105 6.77845 76.3812C6.56527 76.6206 6.69979 77.0993 7.01785 77.1712C6.80467 77.4094 6.93919 77.8882 7.25725 77.9601C7.00759 78.2302 7.23673 78.831 7.63573 78.7478C8.04385 78.6258 7.93669 77.9418 7.55365 77.8609C7.76683 77.6226 7.63231 77.1438 7.31425 77.072C7.52743 76.8326 7.39405 76.3538 7.07485 76.282C7.12319 76.2221 7.15632 76.1515 7.1714 76.076C7.18649 76.0006 7.18309 75.9226 7.16149 75.8488V75.8488C7.14511 75.7652 7.10601 75.6878 7.04849 75.6251C6.99096 75.5623 6.91725 75.5167 6.83545 75.4931C6.88371 75.433 6.91679 75.3621 6.93187 75.2865C6.94695 75.2109 6.9436 75.1328 6.92209 75.0588V75.0588C6.90552 74.9754 6.86633 74.8983 6.80882 74.8357C6.75131 74.7732 6.6777 74.7277 6.59605 74.7042C6.80923 74.4648 6.67471 73.986 6.35665 73.9142C6.56983 73.6759 6.43645 73.1971 6.11725 73.1253C6.33043 72.8871 6.19705 72.4071 5.87785 72.3364C6.09217 72.097 5.95765 71.6182 5.63845 71.5464C5.86645 71.2945 5.69659 70.7655 5.33863 70.7484L5.34319 70.7507ZM3.82585 70.9251C4.10971 70.9548 3.98431 71.5236 3.72211 71.4769C3.49411 71.3948 3.59671 70.9377 3.82585 70.9251ZM5.33977 70.9251C5.56777 70.9388 5.67151 71.3959 5.44351 71.4769C5.18131 71.5225 5.06161 70.9536 5.33977 70.9251ZM3.58645 71.714C4.10173 71.8952 3.29917 72.7115 3.36757 71.942C3.37676 71.8863 3.40259 71.8348 3.44166 71.7941C3.48073 71.7534 3.53121 71.7254 3.58645 71.714V71.714ZM5.57917 71.714C5.63441 71.7254 5.68489 71.7534 5.72396 71.7941C5.76303 71.8348 5.78886 71.8863 5.79805 71.942V71.942C5.86645 72.7103 5.06161 71.893 5.57917 71.7128V71.714ZM3.35161 72.5029C3.86689 72.683 3.06433 73.4992 3.13273 72.7309C3.14192 72.6752 3.16775 72.6236 3.20682 72.5829C3.24589 72.5422 3.29637 72.5143 3.35161 72.5029V72.5029ZM5.82313 72.5029C5.87844 72.5142 5.929 72.542 5.9681 72.5828C6.00719 72.6235 6.03297 72.6751 6.04201 72.7309V72.7309C6.11041 73.4958 5.30785 72.6784 5.82313 72.5029ZM3.11221 73.2918C3.62749 73.4719 2.82493 74.2881 2.89333 73.5198C2.90252 73.4641 2.92835 73.4125 2.96742 73.3718C3.00649 73.3311 3.05697 73.3032 3.11221 73.2918V73.2918ZM6.06253 73.2918C6.11777 73.3032 6.16825 73.3311 6.20732 73.3718C6.24639 73.4125 6.27222 73.4641 6.28141 73.5198V73.5198C6.34981 74.2847 5.54725 73.4685 6.06253 73.2918ZM2.87053 74.0806C3.38581 74.2619 2.58325 75.0781 2.65165 74.3086C2.66068 74.2533 2.68618 74.2019 2.72481 74.1612C2.76345 74.1206 2.81343 74.0925 2.86825 74.0806H2.87053ZM6.29965 74.0806C6.35489 74.0921 6.40537 74.12 6.44444 74.1607C6.48351 74.2014 6.50934 74.253 6.51853 74.3086V74.3086C6.58465 75.0781 5.78209 74.2608 6.29737 74.0806H6.29965ZM2.63227 74.8707C3.14641 75.0508 2.34385 75.867 2.41225 75.0987C2.42144 75.043 2.44727 74.9914 2.48634 74.9507C2.52541 74.91 2.57589 74.8821 2.63113 74.8707H2.63227ZM6.53791 74.8707C6.59343 74.8817 6.64424 74.9095 6.68356 74.9503C6.72287 74.991 6.74882 75.0428 6.75793 75.0987V75.0987C6.82519 75.8636 6.02377 75.0462 6.53791 74.8707ZM2.39287 75.6595C2.90701 75.8397 2.10445 76.6559 2.17285 75.8875C2.18204 75.8319 2.20787 75.7803 2.24694 75.7396C2.28601 75.6989 2.33649 75.671 2.39173 75.6595H2.39287ZM6.77731 75.6595C6.83276 75.6708 6.88349 75.6986 6.92278 75.7393C6.96207 75.78 6.98807 75.8317 6.99733 75.8875C7.06459 76.6536 6.26317 75.8362 6.77731 75.6595ZM2.15347 76.4484C2.66761 76.6297 1.86505 77.4459 1.93345 76.6764C1.94271 76.6206 1.96871 76.5689 2.008 76.5282C2.04729 76.4875 2.09802 76.4597 2.15347 76.4484V76.4484ZM7.01671 76.4484C7.07216 76.4597 7.12289 76.4875 7.16218 76.5282C7.20147 76.5689 7.22747 76.6206 7.23673 76.6764C7.30399 77.4425 6.50257 76.6251 7.01671 76.4484ZM1.91407 77.2384C2.42821 77.4186 1.62565 78.2348 1.69405 77.4664C1.70331 77.411 1.72902 77.3596 1.76785 77.3189C1.80667 77.2783 1.85682 77.2502 1.91179 77.2384H1.91407ZM7.25611 77.2384C7.31149 77.2498 7.36214 77.2777 7.4014 77.3184C7.44067 77.3591 7.46672 77.4107 7.47613 77.4664V77.4664C7.54111 78.2348 6.73969 77.4231 7.25383 77.2384H7.25611ZM1.67011 78.0273C2.18425 78.2074 1.38283 79.0237 1.45009 78.2553C1.4595 78.1996 1.48555 78.148 1.52481 78.1073C1.56408 78.0666 1.61473 78.0387 1.67011 78.0273V78.0273ZM7.49095 78.0273C7.54633 78.0387 7.59698 78.0666 7.63624 78.1073C7.67551 78.148 7.70156 78.1996 7.71097 78.2553C7.77823 79.0214 6.97681 78.204 7.49095 78.0273Z" fill="#322F4A"/>
<path d="M8.8407 78.4822H0C0.02394 84.0796 8.8236 84.0762 8.8407 78.4822Z" fill="#F6BA34"/>
<path d="M6.41248 78.4822C6.1366 80.6265 5.04448 81.958 4.04242 82.7435C6.5926 82.9715 8.85664 80.9742 8.84068 78.4822H6.41248Z" fill="#EA792F"/>
<path d="M23.9069 70.7507C24.2649 70.7655 24.4348 71.2945 24.2068 71.5487C24.5248 71.6205 24.6628 72.0993 24.4462 72.3387C24.7642 72.4094 24.9022 72.8893 24.6844 73.1276C25.0036 73.1994 25.1404 73.6782 24.9238 73.9165C25.243 73.9883 25.3798 74.4671 25.1632 74.7065C25.4824 74.7783 25.6192 75.2571 25.4026 75.4954C25.4844 75.5189 25.5581 75.5646 25.6157 75.6274C25.6732 75.6901 25.7123 75.7675 25.7287 75.8511V75.8511C25.7503 75.9249 25.7537 76.0029 25.7386 76.0783C25.7235 76.1537 25.6904 76.2244 25.642 76.2843C25.9612 76.3561 26.098 76.8349 25.8814 77.0743C26.1995 77.1461 26.3374 77.6249 26.1208 77.8632C26.5039 77.9441 26.611 78.6292 26.2029 78.7501C25.8039 78.8333 25.5748 78.2325 25.8244 77.9623C25.5064 77.8916 25.3684 77.4117 25.585 77.1735C25.267 77.1016 25.129 76.6228 25.3456 76.3834C25.0276 76.3128 24.8896 75.8328 25.1062 75.5946C24.7882 75.5227 24.6502 75.0439 24.8668 74.8057C24.5488 74.7338 24.4108 74.2539 24.6286 74.0157C24.3094 73.945 24.1726 73.465 24.3892 73.2268C24.07 73.155 23.9332 72.6762 24.1498 72.4379C23.8306 72.3661 23.6938 71.8861 23.9104 71.6479C23.492 71.5647 23.4224 70.7689 23.9069 70.7507ZM22.3862 70.7507C22.8707 70.7701 22.8 71.5647 22.3862 71.6456C22.6005 71.8839 22.466 72.3638 22.1468 72.4356C22.3611 72.6739 22.2266 73.1527 21.9074 73.2245C22.1217 73.4627 21.9872 73.9427 21.668 74.0134C21.8823 74.2516 21.7478 74.7316 21.4286 74.8034C21.6429 75.0417 21.5084 75.5205 21.1903 75.5923C21.4035 75.8305 21.269 76.3105 20.9509 76.3812C21.1641 76.6206 21.0296 77.0993 20.7115 77.1712C20.9258 77.4094 20.7902 77.8882 20.4721 77.9601C20.7218 78.2302 20.4926 78.831 20.0936 78.7478C19.6855 78.6258 19.7927 77.9418 20.1757 77.8609C19.9625 77.6226 20.0971 77.1438 20.4151 77.072C20.2019 76.8326 20.3365 76.3538 20.6545 76.282C20.6062 76.2221 20.5731 76.1515 20.558 76.076C20.5429 76.0006 20.5463 75.9226 20.5679 75.8488C20.5843 75.7652 20.6234 75.6878 20.6809 75.6251C20.7384 75.5623 20.8121 75.5167 20.8939 75.4931C20.8457 75.433 20.8126 75.3621 20.7975 75.2865C20.7824 75.2109 20.7858 75.1328 20.8073 75.0588V75.0588C20.8239 74.9754 20.863 74.8983 20.9206 74.8357C20.9781 74.7732 21.0517 74.7277 21.1333 74.7042C20.9201 74.4648 21.0547 73.986 21.3727 73.9142C21.1595 73.6759 21.2941 73.1971 21.6121 73.1253C21.3989 72.8871 21.5335 72.4071 21.8515 72.3364C21.6383 72.097 21.7717 71.6182 22.0909 71.5464C21.8629 71.2945 22.0328 70.7655 22.3907 70.7484L22.3862 70.7507ZM23.9035 70.9251C23.6208 70.9548 23.7462 71.5236 24.0073 71.4769C24.2353 71.3948 24.1327 70.9377 23.9035 70.9251ZM22.3896 70.9251C22.1616 70.9388 22.0579 71.3959 22.2859 71.4769C22.5481 71.5225 22.6735 70.9536 22.3896 70.9251ZM24.1429 71.714C23.6276 71.8952 24.4302 72.7115 24.3629 71.942C24.3532 71.8864 24.3271 71.8349 24.2879 71.7943C24.2487 71.7536 24.1982 71.7257 24.1429 71.714V71.714ZM22.1502 71.714C22.095 71.7254 22.0445 71.7534 22.0054 71.7941C21.9663 71.8348 21.9405 71.8863 21.9313 71.942V71.942C21.8629 72.7103 22.6655 71.893 22.1502 71.7128V71.714ZM24.3823 72.504C23.867 72.6841 24.6696 73.5004 24.6012 72.732C24.592 72.6763 24.5662 72.6248 24.5271 72.5841C24.488 72.5434 24.4376 72.5155 24.3823 72.504V72.504ZM21.9108 72.504C21.8555 72.5153 21.8049 72.5432 21.7658 72.5839C21.7267 72.6246 21.701 72.6763 21.6919 72.732V72.732C21.6235 73.4969 22.4261 72.6796 21.9108 72.504ZM24.6217 73.2929C24.1064 73.473 24.909 74.2893 24.8406 73.5209C24.8314 73.4652 24.8056 73.4137 24.7665 73.373C24.7274 73.3323 24.677 73.3043 24.6217 73.2929V73.2929ZM21.6714 73.2929C21.6162 73.3043 21.5657 73.3323 21.5266 73.373C21.4875 73.4137 21.4617 73.4652 21.4525 73.5209V73.5209C21.3841 74.287 22.1867 73.4696 21.6725 73.2929H21.6714ZM24.8634 74.0818C24.3481 74.263 25.1507 75.0793 25.0823 74.3098C25.0732 74.2536 25.0471 74.2015 25.0076 74.1606C24.968 74.1196 24.9169 74.0917 24.8611 74.0806L24.8634 74.0818ZM21.4354 74.0818C21.38 74.093 21.3292 74.1208 21.29 74.1616C21.2507 74.2023 21.2247 74.254 21.2154 74.3098V74.3098C21.1459 75.0781 21.9473 74.2608 21.4331 74.0806L21.4354 74.0818ZM25.1028 74.8718C24.5875 75.0519 25.3901 75.8682 25.3217 75.0998C25.3125 75.0441 25.2867 74.9926 25.2476 74.9519C25.2085 74.9112 25.158 74.8832 25.1028 74.8718V74.8718ZM21.196 74.8718C21.1405 74.8829 21.0897 74.9107 21.0504 74.9514C21.0111 74.9921 20.9851 75.0439 20.976 75.0998C20.9087 75.8647 21.7102 75.0474 21.196 74.8718ZM25.3411 75.6607C24.8269 75.8408 25.6295 76.657 25.5611 75.8887C25.5519 75.833 25.5261 75.7814 25.487 75.7407C25.4479 75.7 25.3974 75.6721 25.3422 75.6607H25.3411ZM20.9566 75.6607C20.9012 75.6719 20.8504 75.6997 20.8112 75.7405C20.7719 75.7812 20.7459 75.8329 20.7366 75.8887V75.8887C20.6693 76.6547 21.4708 75.8374 20.9566 75.6607ZM25.5816 76.4484C25.0675 76.6297 25.87 77.4459 25.8016 76.6764C25.7924 76.6207 25.7666 76.5692 25.7275 76.5285C25.6885 76.4878 25.638 76.4599 25.5827 76.4484H25.5816ZM20.7184 76.4484C20.663 76.4598 20.6123 76.4877 20.5731 76.5284C20.5338 76.569 20.5078 76.6207 20.4983 76.6764V76.6764C20.4311 77.4425 21.2325 76.6251 20.7184 76.4484ZM25.821 77.2384C25.3069 77.4186 26.1094 78.2348 26.041 77.4664C26.0315 77.4102 26.005 77.3581 25.9651 77.3174C25.9251 77.2766 25.8737 77.2491 25.8176 77.2384H25.821ZM20.479 77.2384C20.4237 77.2501 20.3732 77.2781 20.334 77.3187C20.2948 77.3594 20.2686 77.4108 20.2589 77.4664V77.4664C20.1883 78.2348 20.9908 77.4231 20.4755 77.2384H20.479ZM26.065 78.0273C25.5508 78.2074 26.3534 79.0237 26.285 78.2553C26.2757 78.1995 26.2497 78.1478 26.2104 78.1071C26.1711 78.0664 26.1204 78.0386 26.065 78.0273V78.0273ZM20.2441 78.0273C20.1889 78.039 20.1384 78.067 20.0992 78.1076C20.06 78.1482 20.0338 78.1997 20.0241 78.2553V78.2553C19.9568 79.0214 20.7583 78.204 20.2441 78.0273Z" fill="#322F4A"/>
<path d="M18.8887 78.4822H27.7294C27.7055 84.0796 18.9115 84.0762 18.8887 78.4822Z" fill="#F6BA34"/>
<path d="M25.2807 78.4822C25.0037 80.6265 23.9058 81.958 22.9106 82.7435C25.4597 82.9715 27.7248 80.9742 27.7077 78.4822H25.2807Z" fill="#EA792F"/>
<path d="M11.7443 69.035C11.6195 69.4018 11.5936 69.795 11.669 70.175H16.1253C16.2008 69.795 16.1748 69.4018 16.05 69.035H11.7443Z" fill="#C3D2D1"/>
<path d="M3.36872 69.6118C2.34272 69.5959 2.33474 71.2158 3.36872 71.1998H24.3607C25.3867 71.2158 25.3947 69.5959 24.3607 69.6118H3.36872Z" fill="#D7E9F5"/>
<path d="M13.0713 86.2467C13.0792 86.3607 13.0553 91.0849 13.0792 91.1829H14.6502C14.6741 91.0849 14.6502 86.355 14.6581 86.2467H13.0713Z" fill="#C3D2D1"/>
<path d="M8.21141 86.8269H19.4153C21.2393 86.8178 20.7457 89.2209 20.8016 90.3769C20.8019 90.559 20.7662 90.7394 20.6967 90.9077C20.6271 91.0761 20.525 91.229 20.3962 91.3578C20.2674 91.4866 20.1145 91.5887 19.9462 91.6582C19.7779 91.7278 19.5975 91.7634 19.4153 91.7631H8.21141C8.02929 91.7634 7.84889 91.7278 7.68057 91.6582C7.51224 91.5887 7.35931 91.4866 7.23052 91.3578C7.10174 91.229 6.99964 91.0761 6.93008 90.9077C6.86052 90.7394 6.82487 90.559 6.82517 90.3769C6.88559 89.2198 6.38171 86.8201 8.21141 86.8269Z" fill="#D7E9F5"/>
<path d="M13.0712 70.2046V71.7083H14.6581V70.2046H13.0712Z" fill="#C3D2D1"/>
<path d="M3.36872 69.6118C2.34272 69.5959 2.33474 71.2158 3.36872 71.1998H24.3607C25.3867 71.2158 25.3947 69.5959 24.3607 69.6118H3.36872Z" fill="#D7E9F5"/>
<path d="M8.52379 87.4688C8.14645 87.4688 8.14531 88.057 8.52379 88.0513H18.8123V90.5593C18.8098 90.5991 18.8155 90.6389 18.829 90.6764C18.8425 90.7139 18.8636 90.7483 18.8908 90.7773C18.9181 90.8064 18.9511 90.8295 18.9877 90.8454C19.0243 90.8612 19.0637 90.8694 19.1036 90.8694C19.1434 90.8694 19.1829 90.8612 19.2194 90.8454C19.256 90.8295 19.289 90.8064 19.3163 90.7773C19.3436 90.7483 19.3646 90.7139 19.3781 90.6764C19.3916 90.6389 19.3973 90.5991 19.3948 90.5593V87.7606C19.3948 87.6834 19.3642 87.6093 19.3098 87.5546C19.2553 87.4999 19.1813 87.4691 19.1041 87.4688H8.52379Z" fill="#C3D2D1"/>
<path d="M84.9437 86.2101H63.4798L61.478 91.9249H82.9419L84.9437 86.2101Z" fill="#C3D2D1"/>
<path d="M63.4798 86.2101H84.9437L86.9456 91.9249H65.4817L63.4798 86.2101Z" fill="#D7E9F5"/>
<path d="M66.0231 87.4425L66.9021 90.4954H68.994L68.8435 89.9721H67.3786L66.6513 87.4425H66.0231ZM69.4067 87.4425L69.2003 90.4954H69.841L69.8684 89.8798H71.0084L71.3868 90.4954H72.0309L70.0929 87.4425H69.4067ZM71.282 87.4425L73.0228 90.4954H73.5928L73.4046 88.1128L74.6016 90.4954H75.1716L75.1386 87.4425H74.466L74.6689 89.7327L73.5164 87.4425H72.8962L73.0809 89.7293L71.95 87.4425H71.282ZM75.2549 87.4425L76.8212 89.3645L77.1473 90.4954H77.772L77.4459 89.3645L77.8598 87.4425H77.1564L76.9626 88.7911L75.9514 87.4425H75.2549ZM78.2405 87.4425L79.1195 90.4954H81.3995L81.249 89.9721H79.596L79.368 89.181H80.8295L80.679 88.6577H79.2175L79.0191 87.9669H80.598L80.4464 87.4425H78.2405ZM81.0244 87.4425L81.9033 90.4954H82.5315L82.1826 89.2847C83.741 89.1981 83.1152 89.4796 83.7285 90.4954H84.4034L84.3703 90.3814C83.9075 90.012 84.1298 89.149 83.4218 89.0202C84.0956 88.7455 83.643 87.7218 83.0867 87.5211C82.8165 87.3718 81.3413 87.4698 81.0244 87.4425V87.4425ZM81.803 87.9669C82.2077 88.0159 83.0126 87.7742 83.1174 88.3556C83.3614 88.9906 82.3354 88.6976 82.0322 88.7615L81.803 87.9669ZM69.947 88.163L70.688 89.3565H69.89L69.947 88.163Z" fill="#22263F"/>
<path d="M56.747 74.7646L30.9556 75.8385L30.3856 91.9251H44.7758L44.9651 90.3621L46.0264 89.7078C46.0264 89.7078 46.2213 91.1145 46.3342 91.9251H58.148C57.8961 84.2153 58.3863 79.2802 56.7435 74.7646H56.747Z" fill="#3D395A"/>
<path d="M56.2921 41.0217C59.3143 44.4474 64.8421 58.311 61.527 62.2064C60.7814 62.8242 56.5794 58.6439 56.5794 58.6439L55.4041 43.5958L56.2921 41.0217Z" fill="#3D395A"/>
<path d="M39.0234 78.9336C39.0234 78.9336 48.7499 81.9876 56.5999 78.4958C57.0274 70.2605 50.282 39.6572 50.282 39.6572L44.004 38.1854L36.9668 42.6497L39.0234 78.9336Z" fill="#E8F1F6"/>
<path d="M42.3089 40.5236C42.2849 40.7311 43.3075 43.3668 44.7621 44.0701C44.7621 44.0701 43.4557 62.8995 43.5332 63.0682C43.6107 63.237 44.8818 69.4625 44.8818 69.4625L50.3322 74.3348L53.6382 67.1528L46.8255 43.8501C46.8255 43.8501 47.7045 43.3816 48.108 40.2101C46.5234 38.3724 44.0987 38.8957 44.0987 38.8957L42.3089 40.5236Z" fill="#04B6F5"/>
<path d="M48.2163 37.6576C50.3105 50.6661 52.8607 71.9522 56.682 84.189C56.682 84.189 57.6852 84.5207 58.8252 83.5506L56.2921 41.0217C56.2921 41.0217 52.7136 37.6941 48.2163 37.6576Z" fill="#3D395A"/>
<path d="M48.4797 37.6656C49.3335 40.0038 50.3037 43.5674 52.0034 45.4382C51.601 46.3889 50.7791 57.4515 52.0274 55.3265C51.8358 52.5791 52.1767 48.1753 52.4891 45.1281C50.9352 43.4831 49.9013 39.8898 49.1067 37.7078C48.9003 37.6862 48.686 37.6725 48.4797 37.6656Z" fill="#22263F"/>
<path d="M55.6754 47.8196C55.8281 47.6007 56.4403 51.0606 56.7014 53.8274C56.8268 55.0232 56.9111 56.0834 56.9533 56.9783C57.0673 59.8215 56.7663 59.8637 56.3981 57.0319C56.2739 56.1849 56.1268 55.0609 55.9957 53.9049C55.6514 51.1586 55.477 47.6269 55.6754 47.8196Z" fill="#22263F"/>
<path d="M60.5489 51.9943C57.4572 52.4776 57.4321 52.1527 53.2711 54.3313C53.2711 54.3313 54.948 57.4856 54.9959 57.5233C55.0096 57.5335 55.3858 57.5016 55.8988 57.4549C56.9111 58.9654 58.8628 58.1879 59.9036 57.0422C61.1314 56.9122 63.8868 56.5759 63.3362 55.1737C63.9062 55.0027 63.9882 54.0941 62.7662 53.637C63.2222 53.0773 62.1483 52.4799 61.5589 52.5278C61.4928 52.4332 61.0869 51.9988 60.5489 51.9943Z" fill="#FEC3B3"/>
<path d="M46.0948 67.358L40.2808 41.2657L36.1392 37.8457C36.1392 37.8457 32.4912 38.6768 31.0183 39.8145C27.6131 46.5245 29.3721 75.9308 28.7109 81.8235C28.7109 81.8235 33.8911 85.5011 41.3649 84.6051L46.0948 67.358Z" fill="#3D395A"/>
<path d="M36.138 37.8503C36.138 37.8503 35.9431 37.8959 35.6592 37.9643C36.4572 40.144 37.5494 44.4954 37.6337 46.4722C39.1898 47.9542 43.1775 57.0742 43.6837 58.5892C43.7018 58.6341 43.7307 58.6739 43.7679 58.7049C43.805 58.7359 43.8493 58.7572 43.8968 58.7669C43.9442 58.7766 43.9933 58.7744 44.0397 58.7605C44.086 58.7466 44.1282 58.7215 44.1625 58.6873C43.2243 55.1909 40.2204 48.9004 38.1399 46.186C38.1695 44.085 36.9862 40.1611 36.2691 37.9575L36.138 37.8503Z" fill="#22263F"/>
<path d="M61.5258 62.2041C58.3338 65.4668 50.135 63.889 45.5522 61.7811C46.3866 57.8721 46.4984 55.9261 46.7275 55.8874C46.9566 55.8486 54.7348 56.4277 56.3502 56.5816C59.6642 56.9373 61.3594 59.6209 61.5258 62.2041V62.2041Z" fill="#3D395A"/>
<path d="M60.908 59.8375C60.3471 59.4146 59.6369 58.1549 58.628 57.6886C57.6453 57.0149 55.8623 56.9031 55.1806 56.4768C55.9934 56.0641 57.8528 56.4266 58.9825 57.0753C60.0381 57.7034 61.0208 59.0133 60.9023 59.8375H60.908Z" fill="#22263F"/>
<path d="M36.716 34.9729C36.2771 35.7937 35.7128 38.3792 35.8861 38.4727C36.0594 38.5662 39.9502 43.3154 39.9502 43.3154L44.1249 39.5534L46.7229 39.3323L48.8525 41.1152C48.8525 41.1152 49.4225 38.1398 48.6119 36.7023C45.5943 35.9841 36.716 34.9729 36.716 34.9729Z" fill="#E8F1F6"/>
<path d="M31.016 39.8191C28.28 41.5565 27.5823 41.6112 27.6496 43.7966C27.7169 45.9819 29.5067 54.1626 30.78 57.5963C32.0534 61.0299 32.0967 61.7481 33.182 62.6259C34.2673 63.5037 40.274 62.1494 40.73 60.8259C40.9089 56.7219 33.8193 42.3921 31.0217 39.8191H31.016Z" fill="#3D395A"/>
<path d="M36.3261 48.2118C36.9839 48.5891 38.3291 51.5793 38.8649 52.9097C39.5751 54.7611 40.6 57.3056 40.4917 58.6804C39.8077 57.6122 39.1112 55.2524 38.3257 53.4786L38.2049 53.1742C37.7055 51.7515 36.3957 49.003 36.3261 48.2118Z" fill="#22263F"/>
<path d="M45.2238 56.544C40.0471 51.9008 36.3318 51.6283 32.9631 55.6833C32.6154 56.4243 32.9175 57.024 33.3131 56.951C33.2276 57.8562 33.5411 58.148 34.1795 58.091C34.2263 59.003 34.5626 59.1067 35.3891 58.8309C35.7208 60.0666 44.81 56.4779 45.2238 56.544Z" fill="#FEC3B3"/>
<path d="M59.8432 63.3818C58.0545 65.4554 47.1698 63.6896 45.4268 61.877C47.7615 62.5473 52.4275 63.5562 55.2479 63.5961C56.9499 63.7443 58.7876 63.7637 59.8432 63.3818V63.3818Z" fill="#22263F"/>
<path d="M35.4085 59.9412C40.1691 56.2225 48.3383 54.476 52.4902 53.6404C52.4902 53.6404 57.1802 54.2286 56.2807 57.334C51.7412 61.5451 34.224 69.8888 32.4467 61.2305C32.5163 60.7221 35.4085 59.9412 35.4085 59.9412Z" fill="#3D395A"/>
<path d="M35.6022 60.0495C39.0633 57.4161 44.924 55.5226 49.5319 54.4783C50.8019 54.2503 51.7321 53.6894 52.9348 53.8775C54.1637 54.199 55.7198 54.7485 56.1872 55.9786C56.4015 56.5634 56.2864 56.9761 56.3286 56.9829C56.3708 56.9897 56.5817 56.617 56.4164 55.9113C56.0288 54.4852 54.3872 53.8046 53.0442 53.4033C51.8404 53.116 50.6787 53.7122 49.3962 53.9254C44.8362 55.013 38.5252 56.7241 35.6022 60.0461V60.0495Z" fill="#22263F"/>
<path d="M55.6982 57.6282C54.435 59.8672 41.3342 67.3592 35.1884 64.7954C31.9622 62.9178 30.8849 58.4353 29.8498 55.3163C29.2559 53.3783 28.0144 48.0762 28.166 47.4275C28.4613 48.083 29.6948 53.1913 30.3913 55.1567C31.4378 58.0511 32.5391 62.366 35.4746 64.1479C41.7617 66.4928 53.9585 59.1797 55.6982 57.6282V57.6282Z" fill="#22263F"/>
<path d="M44.769 44.0667C45.0848 43.9174 46.6386 43.7624 46.821 43.8638C46.9452 44.2776 44.6801 44.5148 44.769 44.0667Z" fill="#0081AF"/>
<path d="M33.7612 72.4105C33.3827 72.4105 33.3827 72.9976 33.7612 72.9931C34.1351 73.0387 42.1915 75.468 40.4313 73.8572C38.4659 73.7512 35.7493 72.8392 33.7612 72.4105Z" fill="#22263F"/>
<path d="M58.164 72.4344C57.6772 72.5313 56.6922 72.6624 56.7538 72.6465C56.3787 72.683 56.4437 73.2723 56.8176 73.2256C56.772 73.2336 57.6544 73.123 58.1982 73.0204L58.164 72.4344Z" fill="#22263F"/>
<path d="M42.8982 79.1046C43.1901 78.9472 42.31 83.0809 41.7309 84.3599C41.5815 84.6757 41.5029 85.2423 41.1609 85.4202C40.2124 85.6482 39.2662 85.3939 38.3109 85.3062C35.9727 85.0132 30.8256 83.7364 29.7609 82.4721C32.0944 83.3305 37.7682 84.8809 40.8918 84.8137C40.8838 84.8023 40.8531 84.8376 40.7892 84.9117C40.9146 84.6837 41.0309 84.3805 41.1312 84.1342C41.7012 82.8996 42.8674 78.8674 42.8948 79.108L42.8982 79.1046Z" fill="#22263F"/>
<path d="M55.2593 78.3921C55.29 78.3921 55.3037 78.4172 55.3254 78.4445C55.3586 78.5008 55.3876 78.5595 55.412 78.6201C55.4793 78.766 55.5602 78.978 55.6526 79.2448C56.1371 80.655 56.6535 82.6887 57.0126 84.2471C56.9339 84.1502 56.9111 84.1137 56.8986 84.14C57.3238 84.2471 59.7258 83 58.4353 83.9918C57.9918 84.2072 56.9772 85.0303 56.5269 84.3965C56.027 82.7318 55.619 81.0409 55.3049 79.3314V79.3314C55.2593 79.0533 55.2296 78.8276 55.2194 78.668C55.2136 78.6043 55.2136 78.5402 55.2194 78.4764V78.4764C55.2194 78.4422 55.2194 78.4126 55.2513 78.3989L55.2593 78.3921Z" fill="#22263F"/>
<path d="M48.7818 88.1961C48.9266 88.9086 45.4621 90.7725 44.9571 90.3313C44.9092 90.1831 45.8166 89.7932 46.8575 89.2266C47.8983 88.6601 48.6815 88.0923 48.7818 88.2006V88.1961Z" fill="#22263F"/>
<path d="M36.5473 33.3221V35.6683C38.8467 38.2618 44.1557 40.2157 45.9762 40.9123C47.3511 39.8692 47.3648 37.1685 47.3591 36.9998C47.3591 36.9998 46.9669 35.8849 46.8677 35.7868C44.3289 35.0926 39.1328 33.8819 36.5473 33.3221Z" fill="#FEC3B3"/>
<path d="M37.8332 33.6117C37.107 33.6482 37.009 33.6516 36.5473 33.8956V35.3C39.2491 38.4829 43.6016 39.8281 47.1949 38.5867C47.4662 37.018 47.4229 36.8972 46.8529 35.7811C44.6208 35.1917 40.0722 34.0825 37.8332 33.6117Z" fill="#F37584"/>
<path d="M29.876 26.3761C25.3628 21.661 24.2387 13.64 28.166 11.5424C30.2317 -2.97891 62.6818 -1.52199 57.0331 15.6795C55.8156 18.9125 35.4085 28.2856 35.4085 28.2856L29.876 26.3761Z" fill="#642435"/>
<path d="M51.6067 9.38669C50.8806 9.36845 50.2764 9.53945 49.8888 9.93389C45.7688 14.4278 41.5839 6.43295 36.9475 11.6439C37.4343 13.3334 36.9338 16.8206 33.8478 18.1248C34.411 20.8517 34.1693 22.2379 33.027 23.4931C25.7914 20.48 24.7244 34.6377 34.46 32.6438C42.5814 43.1318 61.6387 35.7424 56.804 22.9618C57.26 21.4274 58.4969 15.2189 55.672 10.806C54.2721 9.93959 52.7798 9.42203 51.6067 9.38669Z" fill="#FEC3B3"/>
<path d="M33.8056 29.9909C32.6884 30.5256 28.5742 30.2953 28.7452 26.9585C31.61 22.3985 34.3312 27.1968 33.8056 29.9909Z" fill="#FAB3AA"/>
<path d="M56.0675 19.8952L51.1234 17.972C52.7661 15.3432 56.5315 17.0463 56.0675 19.8963V19.8952Z" fill="#642435"/>
<path d="M38.0179 19.6375L43.6883 17.8363C42.1937 15.35 37.6634 16.5117 38.0179 19.6375Z" fill="#642435"/>
<path d="M51.536 23.2627C51.4369 24.9511 54.0019 25.1118 54.1159 23.4257C54.2128 21.734 51.65 21.5767 51.536 23.2627Z" fill="#642435"/>
<path d="M39.68 23.6276C39.5809 25.3159 42.1459 25.4778 42.2599 23.7906C42.3739 22.1034 39.794 21.9415 39.68 23.6276Z" fill="#642435"/>
<path d="M33.8569 30.1381C33.9709 30.1381 34.151 29.1235 33.8569 27.5867C33.5309 24.7709 30.2819 23.6982 28.9378 26.3498C28.573 27.1775 28.6893 27.2333 29.208 26.5231C30.5999 24.5612 32.8925 25.3831 33.3211 27.7076C33.6973 29.1121 33.7418 30.1415 33.8535 30.1381H33.8569Z" fill="#F37584"/>
<path d="M33.4511 27.1729C33.3884 26.6222 32.2735 26.4056 31.6362 26.7465C30.991 27.0201 30.218 27.8694 30.3902 28.3881C31.5028 27.5776 31.8061 26.8776 33.4511 27.1729V27.1729Z" fill="#F37584"/>
<path d="M48.612 25.4492C49.6756 25.4857 49.7394 25.8459 49.8169 26.099C49.8169 26.7066 47.041 26.84 46.959 26.3145C46.9419 25.952 47.7148 25.496 48.612 25.4492Z" fill="#F37584"/>
<path d="M43.8479 29.4734C44.6288 29.6683 45.795 30.2999 46.9339 30.3272C48.3498 30.4846 50.7586 30.073 50.4679 30.3785C50.3892 30.6419 48.8662 31.4855 46.8518 31.3019C45.7061 31.2449 43.6598 30.2999 43.8536 29.4779L43.8479 29.4734Z" fill="#F37584"/>
</svg>
